<svg xmlns="http://www.w3.org/2000/svg" xmlns:xlink="http://www.w3.org/1999/xlink" width="1080" zoomAndPan="magnify" viewBox="0 0 810 809.999993" height="1080" preserveAspectRatio="xMidYMid meet" version="1.0"><defs><clipPath id="69798af2a1"><path d="M 471 160 L 761.269531 160 L 761.269531 695.039062 L 471 695.039062 Z M 471 160 " clip-rule="nonzero"/></clipPath><clipPath id="4472e8c219"><path d="M 48.414062 160 L 339 160 L 339 695.039062 L 48.414062 695.039062 Z M 48.414062 160 " clip-rule="nonzero"/></clipPath></defs><path fill="#f03c4f" d="M 727.851562 683.921875 L 505.078125 683.921875 C 499.828125 683.921875 495.003906 682.066406 491.183594 679.054688 C 486.089844 674.964844 482.808594 668.671875 482.808594 661.605469 L 482.808594 193.570312 C 482.808594 188.050781 484.816406 182.992188 488.175781 179.09375 C 492.226562 174.34375 498.324219 171.296875 505.078125 171.296875 L 727.851562 171.296875 C 734.027344 171.296875 739.582031 173.804688 743.59375 177.820312 C 747.648438 181.875 750.117188 187.433594 750.117188 193.570312 L 750.117188 661.605469 C 750.117188 669.867188 745.640625 677.046875 739.003906 680.910156 C 735.722656 682.800781 731.941406 683.921875 727.851562 683.921875 " fill-opacity="1" fill-rule="nonzero"/><g clip-path="url(#69798af2a1)"><path fill="#100f0d" d="M 505.078125 182.453125 C 498.941406 182.453125 493.925781 187.433594 493.925781 193.570312 L 493.925781 661.605469 C 493.925781 667.78125 498.941406 672.761719 505.078125 672.761719 L 727.851562 672.761719 C 733.988281 672.761719 739.003906 667.78125 739.003906 661.605469 L 739.003906 193.570312 C 739.003906 187.433594 733.988281 182.453125 727.851562 182.453125 Z M 727.851562 695.039062 L 505.078125 695.039062 C 486.667969 695.039062 471.65625 680.058594 471.65625 661.605469 L 471.65625 193.570312 C 471.65625 175.15625 486.667969 160.136719 505.078125 160.136719 L 727.851562 160.136719 C 746.296875 160.136719 761.269531 175.15625 761.269531 193.570312 L 761.269531 661.605469 C 761.269531 680.058594 746.296875 695.039062 727.851562 695.039062 " fill-opacity="1" fill-rule="nonzero"/></g><path fill="#100f0d" d="M 622.039062 338.464844 L 577.46875 338.464844 L 577.46875 316.148438 L 622.039062 316.148438 C 628.175781 316.148438 633.191406 311.167969 633.191406 305.03125 C 633.191406 298.890625 628.175781 293.871094 622.039062 293.871094 L 610.886719 293.871094 C 592.480469 293.871094 577.46875 278.894531 577.46875 260.4375 C 577.46875 242.023438 592.480469 227.003906 610.886719 227.003906 L 655.457031 227.003906 L 655.457031 249.320312 L 610.886719 249.320312 C 604.753906 249.320312 599.773438 254.300781 599.773438 260.4375 C 599.773438 266.578125 604.753906 271.597656 610.886719 271.597656 L 622.039062 271.597656 C 640.445312 271.597656 655.457031 286.574219 655.457031 305.03125 C 655.457031 323.445312 640.445312 338.464844 622.039062 338.464844 " fill-opacity="1" fill-rule="nonzero"/><path fill="#100f0d" d="M 627.597656 249.320312 L 605.332031 249.320312 L 605.332031 215.886719 L 627.597656 215.886719 L 627.597656 249.320312 " fill-opacity="1" fill-rule="nonzero"/><path fill="#100f0d" d="M 627.597656 349.582031 L 605.332031 349.582031 L 605.332031 316.148438 L 627.597656 316.148438 L 627.597656 349.582031 " fill-opacity="1" fill-rule="nonzero"/><path fill="#5cc57a" d="M 304.605469 683.921875 L 81.832031 683.921875 C 76.121094 683.921875 70.871094 681.757812 66.9375 678.207031 C 62.421875 674.113281 59.566406 668.207031 59.566406 661.605469 L 59.566406 193.570312 C 59.566406 188.167969 61.496094 183.1875 64.699219 179.324219 C 68.789062 174.421875 74.960938 171.296875 81.832031 171.296875 L 304.605469 171.296875 C 310.742188 171.296875 316.296875 173.804688 320.351562 177.820312 C 324.363281 181.875 326.871094 187.433594 326.871094 193.570312 L 326.871094 661.605469 C 326.871094 667.164062 324.828125 672.261719 321.507812 676.160156 C 317.417969 680.910156 311.359375 683.921875 304.605469 683.921875 " fill-opacity="1" fill-rule="nonzero"/><g clip-path="url(#4472e8c219)"><path fill="#100f0d" d="M 81.832031 182.453125 C 75.695312 182.453125 70.679688 187.433594 70.679688 193.570312 L 70.679688 661.605469 C 70.679688 667.78125 75.695312 672.761719 81.832031 672.761719 L 304.605469 672.761719 C 310.742188 672.761719 315.71875 667.78125 315.71875 661.605469 L 315.71875 193.570312 C 315.71875 187.433594 310.742188 182.453125 304.605469 182.453125 Z M 304.605469 695.039062 L 81.832031 695.039062 C 63.425781 695.039062 48.414062 680.058594 48.414062 661.605469 L 48.414062 193.570312 C 48.414062 175.15625 63.425781 160.136719 81.832031 160.136719 L 304.605469 160.136719 C 323.011719 160.136719 338.023438 175.15625 338.023438 193.570312 L 338.023438 661.605469 C 338.023438 680.058594 323.011719 695.039062 304.605469 695.039062 " fill-opacity="1" fill-rule="nonzero"/></g><path fill="#100f0d" d="M 198.792969 338.464844 L 154.222656 338.464844 L 154.222656 316.148438 L 198.792969 316.148438 C 204.929688 316.148438 209.910156 311.167969 209.910156 305.03125 C 209.910156 298.890625 204.929688 293.871094 198.792969 293.871094 L 187.640625 293.871094 C 169.234375 293.871094 154.222656 278.894531 154.222656 260.4375 C 154.222656 242.023438 169.234375 227.003906 187.640625 227.003906 L 232.210938 227.003906 L 232.210938 249.320312 L 187.640625 249.320312 C 181.507812 249.320312 176.488281 254.300781 176.488281 260.4375 C 176.488281 266.578125 181.507812 271.597656 187.640625 271.597656 L 198.792969 271.597656 C 217.203125 271.597656 232.210938 286.574219 232.210938 305.03125 C 232.210938 323.445312 217.203125 338.464844 198.792969 338.464844 " fill-opacity="1" fill-rule="nonzero"/><path fill="#100f0d" d="M 204.351562 249.320312 L 182.085938 249.320312 L 182.085938 215.886719 L 204.351562 215.886719 L 204.351562 249.320312 " fill-opacity="1" fill-rule="nonzero"/><path fill="#100f0d" d="M 204.351562 349.582031 L 182.085938 349.582031 L 182.085938 316.148438 L 204.351562 316.148438 L 204.351562 349.582031 " fill-opacity="1" fill-rule="nonzero"/><path fill="#f4d433" d="M 516.230469 639.328125 L 293.453125 639.328125 C 289.402344 639.328125 285.582031 638.25 282.300781 636.355469 C 275.664062 632.496094 271.1875 625.277344 271.1875 617.054688 L 271.1875 149.019531 C 271.1875 143.035156 273.542969 137.589844 277.363281 133.574219 C 281.453125 129.367188 287.125 126.742188 293.453125 126.742188 L 516.230469 126.742188 C 522.363281 126.742188 527.921875 129.214844 531.972656 133.265625 C 535.984375 137.28125 538.496094 142.839844 538.496094 149.019531 L 538.496094 617.054688 C 538.496094 623.730469 535.5625 629.714844 530.890625 633.808594 C 526.996094 637.246094 521.863281 639.328125 516.230469 639.328125 " fill-opacity="1" fill-rule="nonzero"/><path fill="#100f0d" d="M 293.453125 137.863281 C 287.316406 137.863281 282.300781 142.878906 282.300781 149.019531 L 282.300781 617.054688 C 282.300781 623.191406 287.316406 628.171875 293.453125 628.171875 L 516.230469 628.171875 C 522.363281 628.171875 527.34375 623.191406 527.34375 617.054688 L 527.34375 149.019531 C 527.34375 142.878906 522.363281 137.863281 516.230469 137.863281 Z M 516.230469 650.488281 L 293.453125 650.488281 C 275.046875 650.488281 260.035156 635.46875 260.035156 617.054688 L 260.035156 149.019531 C 260.035156 130.566406 275.046875 115.585938 293.453125 115.585938 L 516.230469 115.585938 C 534.636719 115.585938 549.648438 130.566406 549.648438 149.019531 L 549.648438 617.054688 C 549.648438 635.46875 534.636719 650.488281 516.230469 650.488281 " fill-opacity="1" fill-rule="nonzero"/><path fill="#100f0d" d="M 410.417969 293.871094 L 365.847656 293.871094 L 365.847656 271.597656 L 410.417969 271.597656 C 416.554688 271.597656 421.570312 266.578125 421.570312 260.4375 C 421.570312 254.300781 416.554688 249.320312 410.417969 249.320312 L 399.265625 249.320312 C 380.859375 249.320312 365.847656 234.300781 365.847656 215.886719 C 365.847656 197.433594 380.859375 182.453125 399.265625 182.453125 L 443.835938 182.453125 L 443.835938 204.730469 L 399.265625 204.730469 C 393.128906 204.730469 388.152344 209.746094 388.152344 215.886719 C 388.152344 222.023438 393.128906 227.003906 399.265625 227.003906 L 410.417969 227.003906 C 428.824219 227.003906 443.835938 242.023438 443.835938 260.4375 C 443.835938 278.894531 428.824219 293.871094 410.417969 293.871094 " fill-opacity="1" fill-rule="nonzero"/><path fill="#100f0d" d="M 415.972656 204.730469 L 393.707031 204.730469 L 393.707031 171.296875 L 415.972656 171.296875 L 415.972656 204.730469 " fill-opacity="1" fill-rule="nonzero"/><path fill="#100f0d" d="M 415.972656 305.03125 L 393.707031 305.03125 L 393.707031 271.597656 L 415.972656 271.597656 L 415.972656 305.03125 " fill-opacity="1" fill-rule="nonzero"/><path fill="#100f0d" d="M 482.808594 360.742188 L 326.871094 360.742188 L 326.871094 338.464844 L 482.808594 338.464844 L 482.808594 360.742188 " fill-opacity="1" fill-rule="nonzero"/><path fill="#100f0d" d="M 482.808594 416.449219 L 371.441406 416.449219 L 371.441406 394.175781 L 482.808594 394.175781 L 482.808594 416.449219 " fill-opacity="1" fill-rule="nonzero"/><path fill="#100f0d" d="M 349.136719 416.449219 L 326.871094 415.910156 L 327.414062 394.175781 L 349.136719 394.714844 L 349.136719 416.449219 " fill-opacity="1" fill-rule="nonzero"/><path fill="#100f0d" d="M 482.808594 472.160156 L 371.441406 472.160156 L 371.441406 449.882812 L 482.808594 449.882812 L 482.808594 472.160156 " fill-opacity="1" fill-rule="nonzero"/><path fill="#100f0d" d="M 349.136719 472.160156 L 326.871094 471.621094 L 327.414062 449.882812 L 349.136719 450.464844 L 349.136719 472.160156 " fill-opacity="1" fill-rule="nonzero"/><path fill="#100f0d" d="M 705.585938 405.332031 L 571.914062 405.332031 L 571.914062 383.015625 L 705.585938 383.015625 L 705.585938 405.332031 " fill-opacity="1" fill-rule="nonzero"/><path fill="#100f0d" d="M 705.585938 461.042969 L 594.179688 461.042969 L 594.179688 438.765625 L 705.585938 438.765625 L 705.585938 461.042969 " fill-opacity="1" fill-rule="nonzero"/><path fill="#100f0d" d="M 571.914062 461.042969 L 549.648438 460.460938 L 550.1875 438.765625 L 571.914062 439.304688 L 571.914062 461.042969 " fill-opacity="1" fill-rule="nonzero"/><path fill="#100f0d" d="M 672.167969 505.59375 L 594.179688 505.59375 L 594.179688 483.316406 L 672.167969 483.316406 L 672.167969 505.59375 " fill-opacity="1" fill-rule="nonzero"/><path fill="#100f0d" d="M 571.914062 505.59375 L 549.648438 505.054688 L 550.1875 483.316406 L 571.914062 483.898438 L 571.914062 505.59375 " fill-opacity="1" fill-rule="nonzero"/><path fill="#100f0d" d="M 705.585938 550.183594 L 594.179688 550.183594 L 594.179688 527.910156 L 705.585938 527.910156 L 705.585938 550.183594 " fill-opacity="1" fill-rule="nonzero"/><path fill="#100f0d" d="M 571.914062 550.183594 L 549.648438 549.605469 L 550.1875 527.910156 L 571.914062 528.449219 L 571.914062 550.183594 " fill-opacity="1" fill-rule="nonzero"/><path fill="#100f0d" d="M 237.769531 405.332031 L 104.097656 405.332031 L 104.097656 383.015625 L 237.769531 383.015625 L 237.769531 405.332031 " fill-opacity="1" fill-rule="nonzero"/><path fill="#100f0d" d="M 237.769531 483.316406 L 148.667969 483.316406 L 148.667969 461.042969 L 237.769531 461.042969 L 237.769531 483.316406 " fill-opacity="1" fill-rule="nonzero"/><path fill="#100f0d" d="M 126.402344 483.316406 L 104.097656 482.777344 L 104.675781 461.042969 L 126.402344 461.582031 L 126.402344 483.316406 " fill-opacity="1" fill-rule="nonzero"/><path fill="#100f0d" d="M 237.769531 527.910156 L 148.667969 527.910156 L 148.667969 505.59375 L 237.769531 505.59375 L 237.769531 527.910156 " fill-opacity="1" fill-rule="nonzero"/><path fill="#ffffff" d="M 449.390625 539.027344 L 360.289062 539.027344 C 354.386719 539.027344 349.023438 541.34375 345.046875 545.050781 C 340.726562 549.144531 338.023438 554.894531 338.023438 561.34375 C 338.023438 567.480469 340.492188 573.039062 344.546875 577.09375 C 348.558594 581.109375 354.15625 583.617188 360.289062 583.617188 L 449.390625 583.617188 C 453.484375 583.617188 457.265625 582.539062 460.542969 580.644531 C 467.183594 576.785156 471.65625 569.566406 471.65625 561.34375 C 471.65625 554.472656 468.570312 548.332031 463.707031 544.238281 C 459.851562 540.996094 454.832031 539.027344 449.390625 539.027344 " fill-opacity="1" fill-rule="nonzero"/><path fill="#100f0d" d="M 360.289062 550.183594 C 354.15625 550.183594 349.136719 555.164062 349.136719 561.34375 C 349.136719 567.480469 354.15625 572.460938 360.289062 572.460938 L 449.390625 572.460938 C 455.527344 572.460938 460.542969 567.480469 460.542969 561.34375 C 460.542969 555.164062 455.527344 550.183594 449.390625 550.183594 Z M 449.390625 594.777344 L 360.289062 594.777344 C 341.882812 594.777344 326.871094 579.757812 326.871094 561.34375 C 326.871094 542.886719 341.882812 527.910156 360.289062 527.910156 L 449.390625 527.910156 C 467.835938 527.910156 482.808594 542.886719 482.808594 561.34375 C 482.808594 579.757812 467.835938 594.777344 449.390625 594.777344 " fill-opacity="1" fill-rule="nonzero"/><path fill="#ffffff" d="M 226.617188 583.617188 L 148.667969 583.617188 C 142.492188 583.617188 136.9375 586.089844 132.921875 590.144531 C 128.871094 594.160156 126.402344 599.757812 126.402344 605.894531 C 126.402344 610.953125 128.0625 615.625 130.917969 619.371094 C 134.96875 624.734375 141.414062 628.171875 148.667969 628.171875 L 226.617188 628.171875 L 226.617188 583.617188 " fill-opacity="1" fill-rule="nonzero"/><path fill="#100f0d" d="M 237.769531 639.328125 L 148.667969 639.328125 C 130.222656 639.328125 115.25 624.351562 115.25 605.894531 C 115.25 587.480469 130.222656 572.460938 148.667969 572.460938 L 237.769531 572.460938 L 237.769531 594.777344 L 148.667969 594.777344 C 142.53125 594.777344 137.515625 599.757812 137.515625 605.894531 C 137.515625 612.035156 142.53125 617.054688 148.667969 617.054688 L 237.769531 617.054688 L 237.769531 639.328125 " fill-opacity="1" fill-rule="nonzero"/><path fill="#ffffff" d="M 583.066406 628.171875 L 661.015625 628.171875 C 669.273438 628.171875 676.449219 623.730469 680.308594 617.054688 C 682.199219 613.769531 683.320312 609.949219 683.320312 605.894531 C 683.320312 600.179688 681.160156 595.007812 677.648438 591.03125 C 673.554688 586.476562 667.613281 583.617188 661.015625 583.617188 L 583.066406 583.617188 L 583.066406 628.171875 " fill-opacity="1" fill-rule="nonzero"/><path fill="#100f0d" d="M 661.015625 639.328125 L 571.914062 639.328125 L 571.914062 617.054688 L 661.015625 617.054688 C 667.152344 617.054688 672.167969 612.035156 672.167969 605.894531 C 672.167969 599.757812 667.152344 594.777344 661.015625 594.777344 L 571.914062 594.777344 L 571.914062 572.460938 L 661.015625 572.460938 C 679.460938 572.460938 694.433594 587.480469 694.433594 605.894531 C 694.433594 624.351562 679.460938 639.328125 661.015625 639.328125 " fill-opacity="1" fill-rule="nonzero"/></svg>