<svg xmlns="http://www.w3.org/2000/svg" xmlns:xlink="http://www.w3.org/1999/xlink" width="1080" zoomAndPan="magnify" viewBox="0 0 810 809.999993" height="1080" preserveAspectRatio="xMidYMid meet" version="1.0"><defs><clipPath id="0f54379ca4"><path d="M 96.597656 135 L 112 135 L 112 152 L 96.597656 152 Z M 96.597656 135 " clip-rule="nonzero"/></clipPath><clipPath id="da524fc06c"><path d="M 96.597656 21 L 713.097656 21 L 713.097656 658 L 96.597656 658 Z M 96.597656 21 " clip-rule="nonzero"/></clipPath><clipPath id="56be4780ce"><path d="M 697 383 L 713.097656 383 L 713.097656 400 L 697 400 Z M 697 383 " clip-rule="nonzero"/></clipPath><clipPath id="9c5dadde19"><path d="M 611 414 L 713.097656 414 L 713.097656 658 L 611 658 Z M 611 414 " clip-rule="nonzero"/></clipPath></defs><path fill="#72c2e9" d="M 705.503906 106.316406 L 705.503906 195.03125 L 104.191406 195.03125 L 104.191406 106.316406 C 104.191406 92.121094 115.703125 80.601562 129.890625 80.601562 L 188.351562 80.601562 L 188.351562 114.03125 C 188.351562 123.980469 196.394531 132.03125 206.339844 132.03125 C 216.285156 132.03125 224.328125 123.980469 224.328125 114.03125 L 224.328125 80.601562 L 320.691406 80.601562 L 320.691406 114.03125 C 320.691406 123.980469 328.734375 132.03125 338.679688 132.03125 C 348.625 132.03125 356.667969 123.980469 356.667969 114.03125 L 356.667969 80.601562 L 453.03125 80.601562 L 453.03125 114.03125 C 453.03125 123.980469 461.074219 132.03125 471.019531 132.03125 C 480.964844 132.03125 489.007812 123.980469 489.007812 114.03125 L 489.007812 80.601562 L 585.375 80.601562 L 585.375 114.03125 C 585.375 123.980469 593.417969 132.03125 603.363281 132.03125 C 613.308594 132.03125 621.351562 123.980469 621.351562 114.03125 L 621.351562 80.601562 L 679.8125 80.601562 C 693.992188 80.601562 705.503906 92.121094 705.503906 106.316406 Z M 705.503906 106.316406 " fill-opacity="1" fill-rule="nonzero"/><path fill="#efefef" d="M 705.511719 195.042969 L 705.511719 624.160156 C 705.511719 638.367188 693.984375 649.875 679.816406 649.875 L 521.5625 649.875 C 527.417969 635.273438 530.636719 619.300781 530.636719 602.605469 C 530.636719 532.289062 473.6875 475.300781 403.421875 475.300781 C 333.15625 475.300781 276.175781 532.289062 276.175781 602.605469 C 276.175781 619.300781 279.394531 635.273438 285.25 649.875 L 129.878906 649.875 C 115.710938 649.875 104.183594 638.371094 104.183594 624.160156 L 104.183594 195.042969 Z M 705.511719 195.042969 " fill-opacity="1" fill-rule="nonzero"/><path fill="#7d7b7a" d="M 224.324219 47.167969 L 224.324219 114.03125 C 224.324219 123.980469 216.28125 132.03125 206.335938 132.03125 C 196.390625 132.03125 188.347656 123.980469 188.347656 114.03125 L 188.347656 47.167969 C 188.347656 37.21875 196.390625 29.167969 206.335938 29.167969 C 216.273438 29.171875 224.324219 37.207031 224.324219 47.167969 Z M 224.324219 47.167969 " fill-opacity="1" fill-rule="nonzero"/><path fill="#7d7b7a" d="M 356.664062 47.167969 L 356.664062 114.03125 C 356.664062 123.980469 348.621094 132.03125 338.675781 132.03125 C 328.730469 132.03125 320.6875 123.980469 320.6875 114.03125 L 320.6875 47.167969 C 320.6875 37.21875 328.730469 29.167969 338.675781 29.167969 C 348.617188 29.171875 356.664062 37.207031 356.664062 47.167969 Z M 356.664062 47.167969 " fill-opacity="1" fill-rule="nonzero"/><path fill="#7d7b7a" d="M 489.007812 47.167969 L 489.007812 114.03125 C 489.007812 123.980469 480.964844 132.03125 471.019531 132.03125 C 461.074219 132.03125 453.03125 123.980469 453.03125 114.03125 L 453.03125 47.167969 C 453.03125 37.21875 461.074219 29.167969 471.019531 29.167969 C 480.953125 29.171875 489.007812 37.207031 489.007812 47.167969 Z M 489.007812 47.167969 " fill-opacity="1" fill-rule="nonzero"/><path fill="#7d7b7a" d="M 621.34375 47.167969 L 621.34375 114.03125 C 621.34375 123.980469 613.300781 132.03125 603.355469 132.03125 C 593.410156 132.03125 585.367188 123.980469 585.367188 114.03125 L 585.367188 47.167969 C 585.367188 37.21875 593.410156 29.167969 603.355469 29.167969 C 613.296875 29.171875 621.34375 37.207031 621.34375 47.167969 Z M 621.34375 47.167969 " fill-opacity="1" fill-rule="nonzero"/><path fill="#000000" d="M 181.804688 502.882812 C 178.324219 487.867188 176.023438 477.949219 155.738281 471.242188 C 148.367188 468.804688 148.382812 458.339844 155.738281 455.90625 C 167.949219 451.871094 176.015625 449.203125 181.804688 424.265625 C 183.722656 415.976562 195.59375 415.957031 197.523438 424.265625 C 203.4375 449.765625 212.277344 452.175781 223.585938 455.90625 C 230.960938 458.34375 230.941406 468.808594 223.585938 471.242188 C 211.8125 475.132812 203.300781 477.945312 197.523438 502.878906 C 195.59375 511.207031 183.734375 511.210938 181.804688 502.882812 Z M 181.804688 502.882812 " fill-opacity="1" fill-rule="nonzero"/><path fill="#f0c020" d="M 201.753906 463.648438 C 197.292969 466.804688 193.289062 470.996094 189.832031 477.128906 C 186.980469 472.300781 183.003906 467.746094 177.179688 463.769531 C 181.882812 460.550781 186.097656 456.148438 189.679688 449.679688 C 193.320312 456.238281 197.476562 460.582031 201.753906 463.648438 Z M 201.753906 463.648438 " fill-opacity="1" fill-rule="nonzero"/><path fill="#000000" d="M 612.167969 502.882812 C 608.691406 487.867188 606.390625 477.949219 586.105469 471.242188 C 578.730469 468.804688 578.75 458.339844 586.105469 455.90625 C 598.316406 451.871094 606.382812 449.203125 612.167969 424.265625 C 614.089844 415.976562 625.960938 415.957031 627.886719 424.265625 C 633.804688 449.765625 642.644531 452.175781 653.953125 455.90625 C 661.324219 458.34375 661.308594 468.808594 653.953125 471.242188 C 642.179688 475.132812 633.667969 477.945312 627.886719 502.878906 C 625.957031 511.207031 614.101562 511.210938 612.167969 502.882812 Z M 612.167969 502.882812 " fill-opacity="1" fill-rule="nonzero"/><path fill="#f0c020" d="M 632.125 463.648438 C 627.664062 466.804688 623.660156 470.996094 620.199219 477.128906 C 617.347656 472.300781 613.375 467.746094 607.550781 463.769531 C 612.25 460.550781 616.46875 456.148438 620.046875 449.679688 C 623.691406 456.238281 627.847656 460.582031 632.125 463.648438 Z M 632.125 463.648438 " fill-opacity="1" fill-rule="nonzero"/><path fill="#efbf27" d="M 530.636719 602.609375 C 530.636719 619.304688 527.417969 635.277344 521.5625 649.878906 C 502.84375 696.785156 457 729.941406 403.421875 729.941406 C 349.839844 729.941406 304 696.785156 285.25 649.878906 C 279.394531 635.277344 276.175781 619.304688 276.175781 602.609375 C 276.175781 532.292969 333.15625 475.304688 403.421875 475.304688 C 473.6875 475.300781 530.636719 532.289062 530.636719 602.609375 Z M 530.636719 602.609375 " fill-opacity="1" fill-rule="nonzero"/><path fill="#ffffff" d="M 679.804688 631.757812 C 675.617188 631.757812 672.21875 628.359375 672.21875 624.167969 L 672.21875 228.347656 L 169.332031 228.347656 C 165.140625 228.347656 161.746094 224.953125 161.746094 220.757812 C 161.746094 216.566406 165.140625 213.167969 169.332031 213.167969 L 679.804688 213.167969 C 683.996094 213.167969 687.390625 216.566406 687.390625 220.757812 L 687.390625 624.167969 C 687.390625 628.359375 683.996094 631.757812 679.804688 631.757812 Z M 138.992188 228.347656 L 129.890625 228.347656 C 125.699219 228.347656 122.304688 224.953125 122.304688 220.757812 C 122.304688 216.566406 125.699219 213.167969 129.890625 213.167969 L 138.992188 213.167969 C 143.179688 213.167969 146.574219 216.566406 146.574219 220.757812 C 146.574219 224.953125 143.179688 228.347656 138.992188 228.347656 Z M 138.992188 228.347656 " fill-opacity="1" fill-rule="nonzero"/><path fill="#c4e4fd" d="M 679.804688 176.90625 L 169.332031 176.90625 C 165.140625 176.90625 161.746094 173.507812 161.746094 169.316406 C 161.746094 165.125 165.140625 161.726562 169.332031 161.726562 L 672.21875 161.726562 L 672.21875 106.316406 C 672.21875 102.121094 675.617188 98.726562 679.804688 98.726562 C 683.996094 98.726562 687.390625 102.121094 687.390625 106.316406 L 687.390625 169.316406 C 687.390625 173.507812 683.996094 176.90625 679.804688 176.90625 Z M 138.992188 176.90625 L 129.890625 176.90625 C 125.699219 176.90625 122.304688 173.507812 122.304688 169.316406 C 122.304688 165.125 125.699219 161.726562 129.890625 161.726562 L 138.992188 161.726562 C 143.179688 161.726562 146.574219 165.125 146.574219 169.316406 C 146.574219 173.507812 143.179688 176.90625 138.992188 176.90625 Z M 138.992188 176.90625 " fill-opacity="1" fill-rule="nonzero"/><path fill="#f8e5b0" d="M 403.414062 708.777344 C 389.648438 708.777344 376.234375 706.175781 363.535156 701.046875 C 359.652344 699.472656 357.777344 695.050781 359.347656 691.164062 C 360.914062 687.277344 365.328125 685.390625 369.21875 686.96875 C 380.097656 691.367188 391.605469 693.597656 403.414062 693.597656 C 453.746094 693.597656 494.335938 652.996094 494.335938 602.613281 C 494.335938 578.265625 484.890625 555.40625 467.738281 538.238281 C 464.777344 535.273438 464.777344 530.46875 467.738281 527.507812 C 470.703125 524.542969 475.503906 524.542969 478.464844 527.507812 C 498.484375 547.542969 509.507812 574.214844 509.507812 602.613281 C 509.507812 661.371094 462.144531 708.777344 403.414062 708.777344 Z M 335.59375 684.324219 C 333.089844 682.242188 330.65625 680.019531 328.359375 677.714844 C 325.398438 674.746094 325.398438 669.945312 328.359375 666.980469 C 331.324219 664.019531 336.125 664.015625 339.089844 666.984375 C 341.058594 668.957031 343.148438 670.867188 345.296875 672.65625 C 348.515625 675.335938 348.957031 680.125 346.277344 683.34375 C 343.597656 686.566406 338.8125 687.003906 335.59375 684.324219 Z M 335.59375 684.324219 " fill-opacity="1" fill-rule="nonzero"/><g clip-path="url(#0f54379ca4)"><path fill="#000000" d="M 111.765625 143.421875 C 111.765625 143.921875 111.71875 144.414062 111.621094 144.902344 C 111.523438 145.390625 111.378906 145.867188 111.191406 146.328125 C 111 146.785156 110.765625 147.222656 110.488281 147.640625 C 110.210938 148.054688 109.898438 148.4375 109.546875 148.789062 C 109.191406 149.140625 108.808594 149.457031 108.394531 149.734375 C 107.980469 150.011719 107.542969 150.242188 107.085938 150.433594 C 106.625 150.625 106.148438 150.769531 105.660156 150.867188 C 105.171875 150.964844 104.679688 151.011719 104.183594 151.011719 C 103.683594 151.011719 103.191406 150.964844 102.703125 150.867188 C 102.214844 150.769531 101.738281 150.625 101.28125 150.433594 C 100.820312 150.242188 100.382812 150.011719 99.96875 149.734375 C 99.554688 149.457031 99.171875 149.140625 98.820312 148.789062 C 98.464844 148.4375 98.152344 148.054688 97.875 147.640625 C 97.597656 147.222656 97.363281 146.785156 97.175781 146.328125 C 96.984375 145.867188 96.839844 145.390625 96.742188 144.902344 C 96.644531 144.414062 96.597656 143.921875 96.597656 143.421875 C 96.597656 142.921875 96.644531 142.429688 96.742188 141.941406 C 96.839844 141.453125 96.984375 140.976562 97.175781 140.515625 C 97.363281 140.058594 97.597656 139.621094 97.875 139.207031 C 98.152344 138.789062 98.464844 138.40625 98.820312 138.054688 C 99.171875 137.703125 99.554688 137.386719 99.96875 137.109375 C 100.382812 136.835938 100.820312 136.601562 101.28125 136.410156 C 101.738281 136.21875 102.214844 136.074219 102.703125 135.976562 C 103.191406 135.878906 103.683594 135.832031 104.183594 135.832031 C 104.679688 135.832031 105.171875 135.878906 105.660156 135.976562 C 106.148438 136.074219 106.625 136.21875 107.085938 136.410156 C 107.542969 136.601562 107.980469 136.835938 108.394531 137.109375 C 108.808594 137.386719 109.191406 137.703125 109.546875 138.054688 C 109.898438 138.40625 110.210938 138.789062 110.488281 139.207031 C 110.765625 139.621094 111 140.058594 111.191406 140.515625 C 111.378906 140.976562 111.523438 141.453125 111.621094 141.941406 C 111.71875 142.429688 111.765625 142.921875 111.765625 143.421875 Z M 111.765625 143.421875 " fill-opacity="1" fill-rule="nonzero"/></g><g clip-path="url(#da524fc06c)"><path fill="#000000" d="M 713.089844 106.316406 C 713.089844 87.949219 698.15625 73.007812 679.804688 73.007812 L 628.929688 73.007812 L 628.929688 47.167969 C 628.929688 33.0625 617.457031 21.578125 603.355469 21.578125 C 589.257812 21.578125 577.78125 33.058594 577.78125 47.167969 L 577.78125 73.007812 L 496.589844 73.007812 L 496.589844 47.167969 C 496.589844 33.0625 485.117188 21.578125 471.015625 21.578125 C 456.914062 21.578125 445.441406 33.058594 445.441406 47.167969 L 445.441406 73.007812 L 364.246094 73.007812 L 364.246094 47.167969 C 364.246094 33.0625 352.777344 21.578125 338.671875 21.578125 C 324.570312 21.578125 313.101562 33.058594 313.101562 47.167969 L 313.101562 73.007812 L 231.910156 73.007812 L 231.910156 47.167969 C 231.910156 33.0625 220.441406 21.578125 206.339844 21.578125 C 192.238281 21.578125 180.765625 33.058594 180.765625 47.167969 L 180.765625 73.019531 L 129.878906 73.019531 C 111.554688 73.019531 96.628906 87.957031 96.597656 106.324219 L 96.597656 113.0625 C 96.597656 117.257812 99.996094 120.65625 104.183594 120.65625 C 108.367188 120.65625 111.765625 117.257812 111.765625 113.0625 L 111.765625 106.324219 C 111.796875 96.335938 119.929688 88.199219 129.878906 88.199219 L 180.765625 88.199219 L 180.765625 114.03125 C 180.765625 128.136719 192.238281 139.621094 206.339844 139.621094 C 220.4375 139.621094 231.910156 128.140625 231.910156 114.03125 L 231.910156 88.191406 L 313.105469 88.191406 L 313.105469 114.03125 C 313.105469 128.136719 324.578125 139.621094 338.679688 139.621094 C 352.777344 139.621094 364.253906 128.140625 364.253906 114.03125 L 364.253906 88.191406 L 445.449219 88.191406 L 445.449219 114.03125 C 445.449219 128.136719 456.917969 139.621094 471.019531 139.621094 C 485.121094 139.621094 496.59375 128.140625 496.59375 114.03125 L 496.59375 88.191406 L 577.78125 88.191406 L 577.78125 114.03125 C 577.78125 128.136719 589.253906 139.621094 603.355469 139.621094 C 617.457031 139.621094 628.929688 128.140625 628.929688 114.03125 L 628.929688 88.191406 L 679.804688 88.191406 C 689.792969 88.191406 697.917969 96.320312 697.917969 106.316406 L 697.917969 187.449219 L 111.765625 187.449219 L 111.765625 173.785156 C 111.765625 169.597656 108.367188 166.195312 104.183594 166.195312 C 99.996094 166.195312 96.597656 169.597656 96.597656 173.785156 C 96.597656 188.640625 96.597656 589.402344 96.597656 624.15625 C 96.597656 642.527344 111.523438 657.464844 129.878906 657.464844 L 190.742188 657.464844 C 194.929688 657.464844 198.324219 654.0625 198.324219 649.871094 C 198.324219 645.714844 194.929688 642.28125 190.742188 642.28125 L 129.878906 642.28125 C 119.898438 642.28125 111.796875 634.144531 111.765625 624.15625 L 111.765625 202.625 L 697.925781 202.625 L 697.925781 361.136719 C 697.925781 365.332031 701.324219 368.726562 705.511719 368.726562 C 709.699219 368.726562 713.097656 365.332031 713.097656 361.136719 C 713.097656 257.609375 713.089844 127.980469 713.089844 106.316406 Z M 216.742188 114.03125 C 216.742188 119.769531 212.074219 124.441406 206.339844 124.441406 C 200.601562 124.441406 195.933594 119.769531 195.933594 114.03125 L 195.933594 47.167969 C 195.933594 41.429688 200.605469 36.757812 206.339844 36.757812 C 212.074219 36.757812 216.742188 41.433594 216.742188 47.167969 Z M 349.078125 114.03125 C 349.078125 119.769531 344.414062 124.441406 338.675781 124.441406 C 332.9375 124.441406 328.273438 119.769531 328.273438 114.03125 L 328.273438 47.167969 C 328.273438 41.429688 332.941406 36.757812 338.675781 36.757812 C 344.410156 36.757812 349.078125 41.429688 349.078125 47.167969 Z M 481.421875 114.03125 C 481.421875 119.769531 476.753906 124.441406 471.019531 124.441406 C 465.285156 124.441406 460.613281 119.769531 460.613281 114.03125 L 460.613281 47.167969 C 460.613281 41.429688 465.28125 36.757812 471.019531 36.757812 C 476.753906 36.757812 481.421875 41.429688 481.421875 47.167969 Z M 613.757812 114.03125 C 613.757812 119.769531 609.089844 124.441406 603.355469 124.441406 C 597.621094 124.441406 592.953125 119.769531 592.953125 114.03125 L 592.953125 47.167969 C 592.953125 41.429688 597.617188 36.757812 603.355469 36.757812 C 609.09375 36.757812 613.757812 41.429688 613.757812 47.167969 Z M 613.757812 114.03125 " fill-opacity="1" fill-rule="nonzero"/></g><g clip-path="url(#56be4780ce)"><path fill="#000000" d="M 713.097656 391.5 C 713.097656 391.996094 713.046875 392.488281 712.953125 392.980469 C 712.855469 393.46875 712.710938 393.941406 712.519531 394.402344 C 712.328125 394.863281 712.09375 395.300781 711.820312 395.714844 C 711.542969 396.128906 711.226562 396.511719 710.875 396.867188 C 710.523438 397.21875 710.140625 397.53125 709.726562 397.808594 C 709.3125 398.085938 708.875 398.320312 708.414062 398.511719 C 707.953125 398.703125 707.480469 398.84375 706.992188 398.941406 C 706.503906 399.039062 706.011719 399.089844 705.511719 399.089844 C 705.015625 399.089844 704.519531 399.039062 704.03125 398.941406 C 703.542969 398.84375 703.070312 398.703125 702.609375 398.511719 C 702.148438 398.320312 701.710938 398.085938 701.296875 397.808594 C 700.882812 397.53125 700.5 397.21875 700.148438 396.867188 C 699.796875 396.511719 699.480469 396.128906 699.207031 395.714844 C 698.929688 395.300781 698.695312 394.863281 698.503906 394.402344 C 698.3125 393.941406 698.171875 393.46875 698.074219 392.980469 C 697.976562 392.488281 697.925781 391.996094 697.925781 391.5 C 697.925781 391 697.976562 390.507812 698.074219 390.015625 C 698.171875 389.527344 698.3125 389.054688 698.503906 388.59375 C 698.695312 388.132812 698.929688 387.695312 699.207031 387.28125 C 699.480469 386.867188 699.796875 386.484375 700.148438 386.132812 C 700.5 385.777344 700.882812 385.464844 701.296875 385.1875 C 701.710938 384.910156 702.148438 384.675781 702.609375 384.484375 C 703.070312 384.296875 703.542969 384.152344 704.03125 384.054688 C 704.519531 383.957031 705.015625 383.90625 705.511719 383.90625 C 706.011719 383.90625 706.503906 383.957031 706.992188 384.054688 C 707.480469 384.152344 707.953125 384.296875 708.414062 384.484375 C 708.875 384.675781 709.3125 384.910156 709.726562 385.1875 C 710.140625 385.464844 710.523438 385.777344 710.875 386.132812 C 711.226562 386.484375 711.542969 386.867188 711.820312 387.28125 C 712.09375 387.695312 712.328125 388.132812 712.519531 388.59375 C 712.710938 389.054688 712.855469 389.527344 712.953125 390.015625 C 713.046875 390.507812 713.097656 391 713.097656 391.5 Z M 713.097656 391.5 " fill-opacity="1" fill-rule="nonzero"/></g><g clip-path="url(#9c5dadde19)"><path fill="#000000" d="M 705.511719 414.269531 C 701.324219 414.269531 697.925781 417.667969 697.925781 421.859375 L 697.925781 624.15625 C 697.925781 634.144531 689.796875 642.28125 679.816406 642.28125 L 618.953125 642.28125 C 614.765625 642.28125 611.367188 645.679688 611.367188 649.871094 C 611.367188 654.058594 614.765625 657.460938 618.953125 657.460938 L 679.816406 657.460938 C 698.171875 657.460938 713.097656 642.523438 713.097656 624.15625 L 713.097656 421.859375 C 713.097656 417.667969 709.699219 414.269531 705.511719 414.269531 Z M 705.511719 414.269531 " fill-opacity="1" fill-rule="nonzero"/></g><path fill="#000000" d="M 403.414062 645.050781 C 393.808594 645.050781 386 637.238281 386 627.628906 C 386 623.433594 382.605469 620.039062 378.414062 620.039062 C 374.226562 620.039062 370.832031 623.433594 370.832031 627.628906 C 370.832031 643.152344 381.734375 656.15625 396.277344 659.421875 L 396.277344 671.105469 C 396.277344 675.300781 399.671875 678.695312 403.859375 678.695312 C 408.050781 678.695312 411.445312 675.300781 411.445312 671.105469 L 411.445312 659.191406 C 425.53125 655.597656 435.992188 642.828125 435.992188 627.628906 C 435.992188 609.648438 421.378906 595.023438 403.414062 595.023438 C 393.808594 595.023438 386 587.207031 386 577.597656 C 386 567.992188 393.8125 560.175781 403.414062 560.175781 C 413.011719 560.175781 420.824219 567.992188 420.824219 577.597656 C 420.824219 581.792969 424.21875 585.191406 428.410156 585.191406 C 432.597656 585.191406 435.992188 581.792969 435.992188 577.597656 C 435.992188 562.398438 425.53125 549.632812 411.445312 546.035156 L 411.445312 534.125 C 411.445312 529.929688 408.050781 526.53125 403.859375 526.53125 C 399.671875 526.53125 396.277344 529.929688 396.277344 534.125 L 396.277344 545.804688 C 381.734375 549.074219 370.832031 562.074219 370.832031 577.597656 C 370.832031 595.578125 385.445312 610.203125 403.414062 610.203125 C 413.015625 610.203125 420.824219 618.019531 420.824219 627.628906 C 420.824219 637.238281 413.011719 645.050781 403.414062 645.050781 Z M 403.414062 645.050781 " fill-opacity="1" fill-rule="nonzero"/><path fill="#000000" d="M 586.628906 620.40625 C 582.488281 619.773438 578.625 622.640625 578.007812 626.789062 C 565.515625 710.363281 492.363281 773.386719 407.84375 773.386719 C 313.121094 773.386719 236.039062 696.386719 235.796875 601.65625 L 246.214844 610.40625 C 249.429688 613.101562 254.210938 612.679688 256.902344 609.472656 C 259.597656 606.261719 259.179688 601.472656 255.96875 598.777344 L 233.101562 579.574219 C 229.886719 576.878906 225.105469 577.300781 222.414062 580.507812 L 203.222656 603.386719 C 200.527344 606.601562 200.945312 611.386719 204.152344 614.082031 C 207.371094 616.78125 212.15625 616.347656 214.839844 613.144531 L 220.738281 606.113281 C 223.351562 707.15625 306.246094 788.5625 407.839844 788.5625 C 499.808594 788.5625 579.410156 719.976562 593.003906 629.035156 C 593.628906 624.886719 590.773438 621.023438 586.628906 620.40625 Z M 586.628906 620.40625 " fill-opacity="1" fill-rule="nonzero"/><path fill="#000000" d="M 594.851562 573.449219 L 588.023438 581.59375 C 578.1875 487.472656 498.441406 413.851562 401.828125 413.851562 C 314.613281 413.851562 239.683594 473.15625 219.613281 558.070312 C 218.648438 562.148438 221.171875 566.234375 225.246094 567.199219 C 229.332031 568.164062 233.40625 565.636719 234.371094 561.5625 C 252.820312 483.535156 321.679688 429.035156 401.828125 429.035156 C 490.96875 429.035156 564.480469 497.230469 573.039062 584.222656 L 563.476562 576.191406 C 560.265625 573.496094 555.484375 573.917969 552.792969 577.125 C 550.097656 580.339844 550.515625 585.125 553.726562 587.820312 L 576.59375 607.023438 C 579.933594 609.816406 584.722656 609.164062 587.277344 606.089844 L 606.472656 583.210938 C 609.164062 579.996094 608.746094 575.210938 605.539062 572.515625 C 602.324219 569.824219 597.542969 570.238281 594.851562 573.449219 Z M 594.851562 573.449219 " fill-opacity="1" fill-rule="nonzero"/><path fill="#000000" d="M 310.671875 515.097656 C 307.578125 512.515625 302.574219 512.972656 299.992188 516.039062 C 279.726562 540.265625 268.59375 570.992188 268.59375 602.597656 C 268.59375 676.773438 328.605469 737.519531 403.421875 737.519531 C 477.902344 737.519531 538.21875 677.136719 538.21875 602.597656 C 538.21875 528.339844 478.136719 467.707031 403.421875 467.707031 C 385.308594 467.707031 367.742188 471.257812 351.207031 478.210938 C 347.253906 479.867188 345.570312 484.300781 347.140625 488.140625 C 348.71875 491.902344 353.300781 493.785156 357.09375 492.210938 C 371.777344 486.015625 387.339844 482.890625 403.421875 482.890625 C 469.375 482.890625 523.050781 536.304688 523.050781 602.601562 C 523.050781 667.910156 470.683594 722.34375 403.453125 722.34375 L 403.390625 722.34375 C 336.003906 722.34375 283.761719 667.730469 283.761719 602.601562 C 283.761719 574.546875 293.652344 547.285156 311.613281 525.820312 C 314.449219 522.390625 313.761719 517.65625 310.671875 515.097656 Z M 310.671875 515.097656 " fill-opacity="1" fill-rule="nonzero"/><path fill="#000000" d="M 332.367188 506.265625 C 335.734375 503.773438 336.429688 499.039062 333.945312 495.667969 C 331.546875 492.417969 326.601562 491.660156 323.355469 494.058594 C 320.011719 496.539062 319.242188 501.210938 321.746094 504.683594 C 324.226562 508.011719 328.988281 508.773438 332.367188 506.265625 Z M 332.367188 506.265625 " fill-opacity="1" fill-rule="nonzero"/><path fill="#000000" d="M 329.296875 362.355469 C 333.484375 362.355469 336.878906 358.957031 336.878906 354.765625 L 336.878906 285.320312 C 336.878906 277.878906 327.226562 274.886719 323.03125 281.042969 L 299.707031 315.257812 L 276.390625 281.039062 C 272.203125 274.90625 262.539062 277.863281 262.539062 285.316406 L 262.539062 354.761719 C 262.539062 358.953125 265.933594 362.351562 270.125 362.351562 C 274.3125 362.351562 277.710938 358.953125 277.710938 354.761719 L 277.710938 309.917969 L 293.445312 333.003906 C 296.457031 337.417969 302.972656 337.410156 305.980469 333.003906 L 321.714844 309.917969 L 321.714844 354.761719 C 321.710938 358.957031 325.105469 362.355469 329.296875 362.355469 Z M 329.296875 362.355469 " fill-opacity="1" fill-rule="nonzero"/><path fill="#000000" d="M 440.941406 354.765625 L 440.941406 309.539062 L 475.355469 359.09375 C 479.578125 365.167969 489.171875 362.207031 489.171875 354.761719 L 489.171875 285.320312 C 489.171875 281.128906 485.773438 277.730469 481.585938 277.730469 C 477.394531 277.730469 474 281.128906 474 285.320312 L 474 330.546875 L 439.585938 280.988281 C 435.359375 274.90625 425.773438 277.910156 425.773438 285.320312 L 425.773438 354.765625 C 425.773438 358.957031 429.167969 362.355469 433.355469 362.355469 C 437.546875 362.355469 440.941406 358.957031 440.941406 354.765625 Z M 440.941406 354.765625 " fill-opacity="1" fill-rule="nonzero"/><path fill="#000000" d="M 533.617188 362.355469 C 537.808594 362.355469 541.203125 358.957031 541.203125 354.765625 L 541.203125 292.910156 L 557.730469 292.910156 C 561.921875 292.910156 565.316406 289.515625 565.316406 285.320312 C 565.316406 281.128906 561.921875 277.730469 557.730469 277.730469 L 509.503906 277.730469 C 505.3125 277.730469 501.917969 281.128906 501.917969 285.320312 C 501.917969 289.515625 505.3125 292.910156 509.503906 292.910156 L 526.03125 292.910156 L 526.03125 354.765625 C 526.03125 358.957031 529.425781 362.355469 533.617188 362.355469 Z M 533.617188 362.355469 " fill-opacity="1" fill-rule="nonzero"/><path fill="#000000" d="M 585.648438 277.730469 C 581.460938 277.730469 578.066406 281.128906 578.066406 285.320312 L 578.066406 354.765625 C 578.066406 358.957031 581.460938 362.355469 585.648438 362.355469 C 589.839844 362.355469 593.234375 358.957031 593.234375 354.765625 L 593.234375 329.1875 L 621.632812 329.1875 L 621.632812 354.765625 C 621.632812 358.957031 625.027344 362.355469 629.21875 362.355469 C 633.40625 362.355469 636.800781 358.957031 636.800781 354.765625 L 636.800781 285.320312 C 636.800781 281.128906 633.40625 277.730469 629.21875 277.730469 C 625.027344 277.730469 621.632812 281.128906 621.632812 285.320312 L 621.632812 314.007812 L 593.234375 314.007812 L 593.234375 285.320312 C 593.234375 281.128906 589.839844 277.730469 585.648438 277.730469 Z M 585.648438 277.730469 " fill-opacity="1" fill-rule="nonzero"/><path fill="#000000" d="M 413.027344 330.632812 L 413.027344 309.449219 C 413.027344 291.957031 398.804688 277.726562 381.328125 277.726562 C 363.847656 277.726562 349.628906 291.960938 349.628906 309.449219 L 349.628906 330.632812 C 349.628906 348.121094 363.847656 362.351562 381.328125 362.351562 C 398.804688 362.355469 413.027344 348.121094 413.027344 330.632812 Z M 364.800781 330.632812 L 364.800781 309.449219 C 364.800781 300.328125 372.214844 292.910156 381.328125 292.910156 C 390.441406 292.910156 397.855469 300.328125 397.855469 309.449219 L 397.855469 330.632812 C 397.855469 339.75 390.441406 347.171875 381.328125 347.171875 C 372.214844 347.175781 364.800781 339.75 364.800781 330.632812 Z M 364.800781 330.632812 " fill-opacity="1" fill-rule="nonzero"/><path fill="#000000" d="M 180.484375 347.175781 C 176.300781 347.175781 172.902344 350.574219 172.902344 354.765625 C 172.902344 358.953125 176.300781 362.355469 180.484375 362.355469 L 217.46875 362.355469 C 221.625 362.355469 225.054688 358.953125 225.054688 354.765625 C 225.054688 350.574219 221.625 347.175781 217.46875 347.175781 L 206.546875 347.175781 L 206.546875 285.332031 C 206.546875 279.144531 199.59375 275.585938 194.5625 279.136719 L 176.085938 292.28125 C 172.585938 294.773438 171.902344 299.503906 174.296875 302.878906 C 176.632812 306.15625 181.578125 307.007812 184.886719 304.671875 L 191.378906 300.023438 L 191.378906 347.175781 Z M 180.484375 347.175781 " fill-opacity="1" fill-rule="nonzero"/></svg>