<svg xmlns="http://www.w3.org/2000/svg" xmlns:xlink="http://www.w3.org/1999/xlink" width="1080" zoomAndPan="magnify" viewBox="0 0 810 809.999993" height="1080" preserveAspectRatio="xMidYMid meet" version="1.0"><defs><clipPath id="136e4d5ec1"><path d="M 110.34375 147 L 125 147 L 125 163 L 110.34375 163 Z M 110.34375 147 " clip-rule="nonzero"/></clipPath><clipPath id="3a5d2e22b3"><path d="M 110.34375 38 L 699.84375 38 L 699.84375 647 L 110.34375 647 Z M 110.34375 38 " clip-rule="nonzero"/></clipPath><clipPath id="f6a4aa4bfc"><path d="M 685 384 L 699.84375 384 L 699.84375 400 L 685 400 Z M 685 384 " clip-rule="nonzero"/></clipPath><clipPath id="ed7566d60f"><path d="M 602 413 L 699.84375 413 L 699.84375 647 L 602 647 Z M 602 413 " clip-rule="nonzero"/></clipPath></defs><path fill="#fc5d3d" d="M 692.582031 119.609375 L 692.582031 204.34375 L 117.605469 204.34375 L 117.605469 119.609375 C 117.605469 106.054688 128.613281 95.050781 142.179688 95.050781 L 198.078125 95.050781 L 198.078125 126.980469 C 198.078125 136.484375 205.769531 144.171875 215.277344 144.171875 C 224.789062 144.171875 232.480469 136.484375 232.480469 126.980469 L 232.480469 95.050781 L 324.625 95.050781 L 324.625 126.980469 C 324.625 136.484375 332.316406 144.171875 341.824219 144.171875 C 351.335938 144.171875 359.023438 136.484375 359.023438 126.980469 L 359.023438 95.050781 L 451.167969 95.050781 L 451.167969 126.980469 C 451.167969 136.484375 458.859375 144.171875 468.371094 144.171875 C 477.878906 144.171875 485.570312 136.484375 485.570312 126.980469 L 485.570312 95.050781 L 577.714844 95.050781 L 577.714844 126.980469 C 577.714844 136.484375 585.40625 144.171875 594.914062 144.171875 C 604.425781 144.171875 612.117188 136.484375 612.117188 126.980469 L 612.117188 95.050781 L 668.015625 95.050781 C 681.574219 95.050781 692.582031 106.054688 692.582031 119.609375 Z M 692.582031 119.609375 " fill-opacity="1" fill-rule="nonzero"/><path fill="#efefef" d="M 692.589844 204.355469 L 692.589844 614.203125 C 692.589844 627.773438 681.566406 638.765625 668.019531 638.765625 L 516.699219 638.765625 C 522.296875 624.816406 525.375 609.5625 525.375 593.613281 C 525.375 526.457031 470.917969 472.027344 403.730469 472.027344 C 336.542969 472.027344 282.058594 526.457031 282.058594 593.613281 C 282.058594 609.5625 285.132812 624.816406 290.734375 638.765625 L 142.167969 638.765625 C 128.621094 638.765625 117.597656 627.773438 117.597656 614.203125 L 117.597656 204.355469 Z M 692.589844 204.355469 " fill-opacity="1" fill-rule="nonzero"/><path fill="#7d7b7a" d="M 232.476562 63.121094 L 232.476562 126.980469 C 232.476562 136.484375 224.785156 144.171875 215.277344 144.171875 C 205.765625 144.171875 198.074219 136.484375 198.074219 126.980469 L 198.074219 63.121094 C 198.074219 53.617188 205.765625 45.929688 215.277344 45.929688 C 224.78125 45.929688 232.476562 53.605469 232.476562 63.121094 Z M 232.476562 63.121094 " fill-opacity="1" fill-rule="nonzero"/><path fill="#7d7b7a" d="M 359.023438 63.121094 L 359.023438 126.980469 C 359.023438 136.484375 351.332031 144.171875 341.820312 144.171875 C 332.3125 144.171875 324.621094 136.484375 324.621094 126.980469 L 324.621094 63.121094 C 324.621094 53.617188 332.3125 45.929688 341.820312 45.929688 C 351.324219 45.929688 359.023438 53.605469 359.023438 63.121094 Z M 359.023438 63.121094 " fill-opacity="1" fill-rule="nonzero"/><path fill="#7d7b7a" d="M 485.566406 63.121094 L 485.566406 126.980469 C 485.566406 136.484375 477.875 144.171875 468.367188 144.171875 C 458.855469 144.171875 451.167969 136.484375 451.167969 126.980469 L 451.167969 63.121094 C 451.167969 53.617188 458.855469 45.929688 468.367188 45.929688 C 477.867188 45.929688 485.566406 53.605469 485.566406 63.121094 Z M 485.566406 63.121094 " fill-opacity="1" fill-rule="nonzero"/><path fill="#7d7b7a" d="M 612.109375 63.121094 L 612.109375 126.980469 C 612.109375 136.484375 604.417969 144.171875 594.910156 144.171875 C 585.398438 144.171875 577.707031 136.484375 577.707031 126.980469 L 577.707031 63.121094 C 577.707031 53.617188 585.398438 45.929688 594.910156 45.929688 C 604.414062 45.929688 612.109375 53.605469 612.109375 63.121094 Z M 612.109375 63.121094 " fill-opacity="1" fill-rule="nonzero"/><path fill="#000000" d="M 191.816406 498.371094 C 188.492188 484.03125 186.292969 474.558594 166.894531 468.152344 C 159.84375 465.824219 159.863281 455.828125 166.894531 453.503906 C 178.570312 449.648438 186.285156 447.101562 191.816406 423.285156 C 193.65625 415.367188 205.007812 415.347656 206.847656 423.285156 C 212.503906 447.640625 220.957031 449.941406 231.773438 453.503906 C 238.820312 455.832031 238.804688 465.828125 231.773438 468.148438 C 220.511719 471.867188 212.375 474.554688 206.847656 498.367188 C 205.003906 506.320312 193.667969 506.324219 191.816406 498.371094 Z M 191.816406 498.371094 " fill-opacity="1" fill-rule="nonzero"/><path fill="#f0c020" d="M 210.894531 460.898438 C 206.632812 463.914062 202.800781 467.914062 199.496094 473.773438 C 196.765625 469.160156 192.96875 464.8125 187.398438 461.011719 C 191.894531 457.941406 195.925781 453.734375 199.347656 447.558594 C 202.832031 453.820312 206.804688 457.96875 210.894531 460.898438 Z M 210.894531 460.898438 " fill-opacity="1" fill-rule="nonzero"/><path fill="#000000" d="M 603.335938 498.371094 C 600.007812 484.03125 597.808594 474.558594 578.414062 468.152344 C 571.363281 465.824219 571.382812 455.828125 578.414062 453.503906 C 590.089844 449.648438 597.804688 447.101562 603.335938 423.285156 C 605.171875 415.367188 616.523438 415.347656 618.367188 423.285156 C 624.023438 447.640625 632.476562 449.941406 643.289062 453.503906 C 650.339844 455.832031 650.324219 465.828125 643.289062 468.148438 C 632.03125 471.867188 623.894531 474.554688 618.367188 498.367188 C 616.523438 506.320312 605.183594 506.324219 603.335938 498.371094 Z M 603.335938 498.371094 " fill-opacity="1" fill-rule="nonzero"/><path fill="#f0c020" d="M 622.417969 460.898438 C 618.152344 463.914062 614.324219 467.914062 611.015625 473.773438 C 608.289062 469.160156 604.488281 464.8125 598.917969 461.011719 C 603.414062 457.941406 607.449219 453.734375 610.871094 447.558594 C 614.351562 453.820312 618.328125 457.96875 622.417969 460.898438 Z M 622.417969 460.898438 " fill-opacity="1" fill-rule="nonzero"/><path fill="#efbf27" d="M 525.375 593.617188 C 525.375 609.566406 522.296875 624.820312 516.699219 638.765625 C 498.800781 683.566406 454.964844 715.234375 403.730469 715.234375 C 352.496094 715.234375 308.664062 683.566406 290.734375 638.765625 C 285.132812 624.820312 282.058594 609.566406 282.058594 593.617188 C 282.058594 526.460938 336.542969 472.03125 403.730469 472.03125 C 470.917969 472.027344 525.375 526.457031 525.375 593.617188 Z M 525.375 593.617188 " fill-opacity="1" fill-rule="nonzero"/><path fill="#ffffff" d="M 668.011719 621.457031 C 664.003906 621.457031 660.757812 618.214844 660.757812 614.207031 L 660.757812 236.164062 L 179.890625 236.164062 C 175.886719 236.164062 172.640625 232.921875 172.640625 228.914062 C 172.640625 224.910156 175.886719 221.667969 179.890625 221.667969 L 668.011719 221.667969 C 672.015625 221.667969 675.261719 224.910156 675.261719 228.914062 L 675.261719 614.207031 C 675.261719 618.214844 672.015625 621.457031 668.011719 621.457031 Z M 150.882812 236.164062 L 142.179688 236.164062 C 138.171875 236.164062 134.925781 232.921875 134.925781 228.914062 C 134.925781 224.910156 138.171875 221.667969 142.179688 221.667969 L 150.882812 221.667969 C 154.886719 221.667969 158.132812 224.910156 158.132812 228.914062 C 158.132812 232.921875 154.886719 236.164062 150.882812 236.164062 Z M 150.882812 236.164062 " fill-opacity="1" fill-rule="nonzero"/><path fill="#ffcac2" d="M 668.011719 187.03125 L 179.890625 187.03125 C 175.886719 187.03125 172.640625 183.789062 172.640625 179.78125 C 172.640625 175.777344 175.886719 172.535156 179.890625 172.535156 L 660.757812 172.535156 L 660.757812 119.609375 C 660.757812 115.605469 664.003906 112.359375 668.011719 112.359375 C 672.015625 112.359375 675.261719 115.605469 675.261719 119.609375 L 675.261719 179.78125 C 675.261719 183.789062 672.015625 187.03125 668.011719 187.03125 Z M 150.882812 187.03125 L 142.179688 187.03125 C 138.171875 187.03125 134.925781 183.789062 134.925781 179.78125 C 134.925781 175.777344 138.171875 172.535156 142.179688 172.535156 L 150.882812 172.535156 C 154.886719 172.535156 158.132812 175.777344 158.132812 179.78125 C 158.132812 183.789062 154.886719 187.03125 150.882812 187.03125 Z M 150.882812 187.03125 " fill-opacity="1" fill-rule="nonzero"/><path fill="#f8e5b0" d="M 403.722656 695.023438 C 390.558594 695.023438 377.734375 692.535156 365.59375 687.636719 C 361.878906 686.132812 360.085938 681.910156 361.585938 678.199219 C 363.085938 674.484375 367.308594 672.683594 371.027344 674.191406 C 381.429688 678.390625 392.429688 680.523438 403.722656 680.523438 C 451.851562 680.523438 490.664062 641.746094 490.664062 593.625 C 490.664062 570.371094 481.632812 548.535156 465.230469 532.140625 C 462.398438 529.308594 462.398438 524.71875 465.230469 521.890625 C 468.066406 519.058594 472.65625 519.058594 475.488281 521.890625 C 494.628906 541.027344 505.171875 566.5 505.171875 593.625 C 505.171875 649.742188 459.882812 695.023438 403.722656 695.023438 Z M 338.875 671.667969 C 336.480469 669.675781 334.152344 667.550781 331.953125 665.355469 C 329.125 662.519531 329.125 657.929688 331.957031 655.101562 C 334.789062 652.269531 339.382812 652.269531 342.214844 655.105469 C 344.097656 656.988281 346.097656 658.8125 348.152344 660.519531 C 351.230469 663.082031 351.652344 667.652344 349.089844 670.730469 C 346.527344 673.808594 341.953125 674.226562 338.875 671.667969 Z M 338.875 671.667969 " fill-opacity="1" fill-rule="nonzero"/><g clip-path="url(#136e4d5ec1)"><path fill="#000000" d="M 124.851562 155.050781 C 124.847656 155.527344 124.804688 156 124.710938 156.464844 C 124.617188 156.933594 124.480469 157.386719 124.296875 157.824219 C 124.117188 158.265625 123.890625 158.683594 123.628906 159.078125 C 123.363281 159.472656 123.0625 159.839844 122.726562 160.175781 C 122.386719 160.511719 122.023438 160.8125 121.625 161.078125 C 121.230469 161.34375 120.8125 161.566406 120.371094 161.75 C 119.933594 161.929688 119.480469 162.066406 119.011719 162.160156 C 118.542969 162.253906 118.074219 162.300781 117.597656 162.300781 C 117.121094 162.300781 116.648438 162.253906 116.183594 162.160156 C 115.714844 162.066406 115.261719 161.929688 114.820312 161.75 C 114.382812 161.566406 113.964844 161.34375 113.566406 161.078125 C 113.171875 160.8125 112.804688 160.511719 112.46875 160.175781 C 112.132812 159.839844 111.832031 159.472656 111.566406 159.078125 C 111.300781 158.683594 111.078125 158.265625 110.894531 157.824219 C 110.714844 157.386719 110.578125 156.933594 110.484375 156.464844 C 110.390625 156 110.34375 155.527344 110.34375 155.050781 C 110.34375 154.574219 110.390625 154.101562 110.484375 153.636719 C 110.578125 153.167969 110.714844 152.714844 110.894531 152.277344 C 111.078125 151.835938 111.300781 151.417969 111.566406 151.023438 C 111.832031 150.628906 112.132812 150.261719 112.46875 149.925781 C 112.804688 149.589844 113.171875 149.289062 113.566406 149.023438 C 113.964844 148.757812 114.382812 148.535156 114.820312 148.351562 C 115.261719 148.171875 115.714844 148.035156 116.183594 147.941406 C 116.648438 147.847656 117.121094 147.800781 117.597656 147.800781 C 118.074219 147.800781 118.542969 147.847656 119.011719 147.941406 C 119.480469 148.035156 119.933594 148.171875 120.371094 148.351562 C 120.8125 148.535156 121.230469 148.757812 121.625 149.023438 C 122.023438 149.289062 122.386719 149.589844 122.726562 149.925781 C 123.0625 150.261719 123.363281 150.628906 123.628906 151.023438 C 123.890625 151.417969 124.117188 151.835938 124.296875 152.277344 C 124.480469 152.714844 124.617188 153.167969 124.710938 153.636719 C 124.804688 154.101562 124.847656 154.574219 124.851562 155.050781 Z M 124.851562 155.050781 " fill-opacity="1" fill-rule="nonzero"/></g><g clip-path="url(#3a5d2e22b3)"><path fill="#000000" d="M 699.835938 119.609375 C 699.835938 102.070312 685.558594 87.800781 668.011719 87.800781 L 619.363281 87.800781 L 619.363281 63.121094 C 619.363281 49.644531 608.394531 38.679688 594.910156 38.679688 C 581.429688 38.679688 570.457031 49.644531 570.457031 63.121094 L 570.457031 87.800781 L 492.816406 87.800781 L 492.816406 63.121094 C 492.816406 49.644531 481.847656 38.679688 468.363281 38.679688 C 454.882812 38.679688 443.910156 49.644531 443.910156 63.121094 L 443.910156 87.800781 L 366.273438 87.800781 L 366.273438 63.121094 C 366.273438 49.644531 355.304688 38.679688 341.820312 38.679688 C 328.335938 38.679688 317.367188 49.644531 317.367188 63.121094 L 317.367188 87.800781 L 239.734375 87.800781 L 239.734375 63.121094 C 239.734375 49.644531 228.761719 38.679688 215.277344 38.679688 C 201.796875 38.679688 190.824219 49.644531 190.824219 63.121094 L 190.824219 87.808594 L 142.167969 87.808594 C 124.648438 87.808594 110.34375 102.074219 110.34375 119.617188 L 110.34375 126.054688 C 110.34375 130.0625 113.59375 133.304688 117.597656 133.304688 C 121.601562 133.304688 124.847656 130.0625 124.847656 126.054688 L 124.847656 119.617188 C 124.878906 110.078125 132.652344 102.308594 142.167969 102.308594 L 190.824219 102.308594 L 190.824219 126.980469 C 190.824219 140.453125 201.796875 151.421875 215.277344 151.421875 C 228.761719 151.421875 239.734375 140.457031 239.734375 126.980469 L 239.734375 102.300781 L 317.371094 102.300781 L 317.371094 126.980469 C 317.371094 140.453125 328.339844 151.421875 341.824219 151.421875 C 355.304688 151.421875 366.277344 140.457031 366.277344 126.980469 L 366.277344 102.300781 L 443.917969 102.300781 L 443.917969 126.980469 C 443.917969 140.453125 454.886719 151.421875 468.371094 151.421875 C 481.855469 151.421875 492.824219 140.457031 492.824219 126.980469 L 492.824219 102.300781 L 570.457031 102.300781 L 570.457031 126.980469 C 570.457031 140.453125 581.425781 151.421875 594.910156 151.421875 C 608.394531 151.421875 619.363281 140.457031 619.363281 126.980469 L 619.363281 102.300781 L 668.011719 102.300781 C 677.5625 102.300781 685.328125 110.0625 685.328125 119.609375 L 685.328125 197.101562 L 124.851562 197.101562 L 124.851562 184.050781 C 124.851562 180.050781 121.601562 176.800781 117.597656 176.800781 C 113.59375 176.800781 110.34375 180.050781 110.34375 184.050781 C 110.34375 198.238281 110.34375 581.007812 110.34375 614.199219 C 110.34375 631.742188 124.617188 646.011719 142.167969 646.011719 L 200.363281 646.011719 C 204.367188 646.011719 207.617188 642.761719 207.617188 638.761719 C 207.617188 634.789062 204.367188 631.511719 200.363281 631.511719 L 142.167969 631.511719 C 132.625 631.511719 124.878906 623.742188 124.847656 614.199219 L 124.847656 211.59375 L 685.339844 211.59375 L 685.339844 362.992188 C 685.339844 366.996094 688.589844 370.238281 692.589844 370.238281 C 696.59375 370.238281 699.84375 366.996094 699.84375 362.992188 C 699.84375 264.109375 699.835938 140.304688 699.835938 119.609375 Z M 225.226562 126.980469 C 225.226562 132.460938 220.765625 136.921875 215.277344 136.921875 C 209.792969 136.921875 205.332031 132.460938 205.332031 126.980469 L 205.332031 63.121094 C 205.332031 57.636719 209.796875 53.175781 215.277344 53.175781 C 220.761719 53.175781 225.226562 57.640625 225.226562 63.121094 Z M 351.769531 126.980469 C 351.769531 132.460938 347.308594 136.921875 341.820312 136.921875 C 336.335938 136.921875 331.875 132.460938 331.875 126.980469 L 331.875 63.121094 C 331.875 57.636719 336.339844 53.175781 341.820312 53.175781 C 347.304688 53.175781 351.769531 57.636719 351.769531 63.121094 Z M 478.316406 126.980469 C 478.316406 132.460938 473.851562 136.921875 468.367188 136.921875 C 462.882812 136.921875 458.417969 132.460938 458.417969 126.980469 L 458.417969 63.121094 C 458.417969 57.636719 462.878906 53.175781 468.367188 53.175781 C 473.851562 53.175781 478.316406 57.636719 478.316406 63.121094 Z M 604.855469 126.980469 C 604.855469 132.460938 600.390625 136.921875 594.910156 136.921875 C 589.425781 136.921875 584.960938 132.460938 584.960938 126.980469 L 584.960938 63.121094 C 584.960938 57.636719 589.421875 53.175781 594.910156 53.175781 C 600.394531 53.175781 604.855469 57.636719 604.855469 63.121094 Z M 604.855469 126.980469 " fill-opacity="1" fill-rule="nonzero"/></g><g clip-path="url(#f6a4aa4bfc)"><path fill="#000000" d="M 699.84375 391.988281 C 699.84375 392.464844 699.796875 392.933594 699.703125 393.402344 C 699.613281 393.867188 699.472656 394.324219 699.292969 394.761719 C 699.109375 395.203125 698.886719 395.621094 698.621094 396.015625 C 698.355469 396.410156 698.054688 396.777344 697.71875 397.113281 C 697.382812 397.449219 697.015625 397.75 696.621094 398.015625 C 696.226562 398.28125 695.808594 398.503906 695.367188 398.683594 C 694.925781 398.867188 694.472656 399.003906 694.007812 399.097656 C 693.539062 399.191406 693.066406 399.238281 692.589844 399.238281 C 692.117188 399.238281 691.644531 399.191406 691.175781 399.097656 C 690.710938 399.003906 690.257812 398.867188 689.816406 398.683594 C 689.375 398.503906 688.957031 398.28125 688.5625 398.015625 C 688.167969 397.75 687.800781 397.449219 687.464844 397.113281 C 687.125 396.777344 686.824219 396.410156 686.5625 396.015625 C 686.296875 395.621094 686.074219 395.203125 685.890625 394.761719 C 685.707031 394.324219 685.570312 393.867188 685.476562 393.402344 C 685.386719 392.933594 685.339844 392.464844 685.339844 391.988281 C 685.339844 391.511719 685.386719 391.039062 685.476562 390.574219 C 685.570312 390.105469 685.707031 389.652344 685.890625 389.214844 C 686.074219 388.773438 686.296875 388.355469 686.5625 387.960938 C 686.824219 387.566406 687.125 387.199219 687.464844 386.863281 C 687.800781 386.523438 688.167969 386.226562 688.5625 385.960938 C 688.957031 385.695312 689.375 385.472656 689.816406 385.289062 C 690.257812 385.109375 690.710938 384.972656 691.175781 384.878906 C 691.644531 384.785156 692.117188 384.738281 692.589844 384.738281 C 693.066406 384.738281 693.539062 384.785156 694.007812 384.878906 C 694.472656 384.972656 694.925781 385.109375 695.367188 385.289062 C 695.808594 385.472656 696.226562 385.695312 696.621094 385.960938 C 697.015625 386.226562 697.382812 386.523438 697.71875 386.863281 C 698.054688 387.199219 698.355469 387.566406 698.621094 387.960938 C 698.886719 388.355469 699.109375 388.773438 699.292969 389.214844 C 699.472656 389.652344 699.613281 390.105469 699.703125 390.574219 C 699.796875 391.039062 699.84375 391.511719 699.84375 391.988281 Z M 699.84375 391.988281 " fill-opacity="1" fill-rule="nonzero"/></g><g clip-path="url(#ed7566d60f)"><path fill="#000000" d="M 692.589844 413.734375 C 688.589844 413.734375 685.339844 416.984375 685.339844 420.984375 L 685.339844 614.199219 C 685.339844 623.738281 677.5625 631.507812 668.019531 631.507812 L 609.824219 631.507812 C 605.820312 631.507812 602.570312 634.757812 602.570312 638.757812 C 602.570312 642.757812 605.820312 646.007812 609.824219 646.007812 L 668.019531 646.007812 C 685.570312 646.007812 699.84375 631.742188 699.84375 614.199219 L 699.84375 420.984375 C 699.84375 416.984375 696.59375 413.734375 692.589844 413.734375 Z M 692.589844 413.734375 " fill-opacity="1" fill-rule="nonzero"/></g><path fill="#000000" d="M 403.722656 634.15625 C 394.539062 634.15625 387.074219 626.691406 387.074219 617.515625 C 387.074219 613.511719 383.828125 610.265625 379.820312 610.265625 C 375.8125 610.265625 372.566406 613.511719 372.566406 617.515625 C 372.566406 632.339844 382.992188 644.761719 396.898438 647.878906 L 396.898438 659.042969 C 396.898438 663.046875 400.144531 666.289062 404.152344 666.289062 C 408.15625 666.289062 411.402344 663.046875 411.402344 659.042969 L 411.402344 647.660156 C 424.875 644.226562 434.875 632.035156 434.875 617.515625 C 434.875 600.34375 420.902344 586.375 403.722656 586.375 C 394.539062 586.375 387.074219 578.910156 387.074219 569.734375 C 387.074219 560.554688 394.542969 553.089844 403.722656 553.089844 C 412.902344 553.089844 420.371094 560.554688 420.371094 569.734375 C 420.371094 573.738281 423.617188 576.980469 427.625 576.980469 C 431.628906 576.980469 434.875 573.738281 434.875 569.734375 C 434.875 555.214844 424.875 543.023438 411.402344 539.585938 L 411.402344 528.207031 C 411.402344 524.203125 408.15625 520.960938 404.152344 520.960938 C 400.144531 520.960938 396.898438 524.203125 396.898438 528.207031 L 396.898438 539.367188 C 382.992188 542.488281 372.566406 554.902344 372.566406 569.734375 C 372.566406 586.90625 386.542969 600.875 403.722656 600.875 C 412.902344 600.875 420.371094 608.335938 420.371094 617.515625 C 420.371094 626.691406 412.902344 634.15625 403.722656 634.15625 Z M 403.722656 634.15625 " fill-opacity="1" fill-rule="nonzero"/><path fill="#000000" d="M 578.914062 610.617188 C 574.96875 610.011719 571.261719 612.753906 570.671875 616.714844 C 558.726562 696.535156 488.777344 756.726562 407.960938 756.726562 C 317.386719 756.726562 243.679688 683.1875 243.449219 592.710938 L 253.410156 601.066406 C 256.484375 603.640625 261.054688 603.238281 263.628906 600.175781 C 266.203125 597.105469 265.804688 592.535156 262.734375 589.960938 L 240.871094 571.617188 C 237.796875 569.046875 233.222656 569.445312 230.652344 572.511719 L 212.300781 594.363281 C 209.722656 597.429688 210.125 602.003906 213.191406 604.574219 C 216.269531 607.152344 220.839844 606.742188 223.40625 603.683594 L 229.046875 596.96875 C 231.546875 693.472656 310.8125 771.222656 407.953125 771.222656 C 495.894531 771.222656 572.015625 705.71875 585.011719 618.855469 C 585.609375 614.894531 582.878906 611.207031 578.914062 610.617188 Z M 578.914062 610.617188 " fill-opacity="1" fill-rule="nonzero"/><path fill="#000000" d="M 586.777344 565.769531 L 580.246094 573.546875 C 570.84375 483.652344 494.589844 413.339844 402.207031 413.339844 C 318.8125 413.339844 247.164062 469.980469 227.972656 551.078125 C 227.050781 554.976562 229.460938 558.878906 233.359375 559.800781 C 237.261719 560.71875 241.164062 558.308594 242.085938 554.417969 C 259.726562 479.890625 325.570312 427.839844 402.207031 427.839844 C 487.445312 427.839844 557.738281 492.972656 565.917969 576.058594 L 556.777344 568.386719 C 553.703125 565.816406 549.132812 566.214844 546.558594 569.28125 C 543.984375 572.347656 544.382812 576.921875 547.453125 579.492188 L 569.320312 597.835938 C 572.5 600.488281 577.074219 599.90625 579.535156 596.945312 L 597.886719 575.089844 C 600.464844 572.023438 600.0625 567.449219 596.996094 564.878906 C 593.921875 562.304688 589.351562 562.703125 586.777344 565.769531 Z M 586.777344 565.769531 " fill-opacity="1" fill-rule="nonzero"/><path fill="#000000" d="M 434.71875 290.28125 C 438.722656 290.28125 441.96875 287.039062 441.96875 283.035156 C 441.96875 279.027344 438.722656 275.785156 434.71875 275.785156 L 377.375 275.785156 C 373.367188 275.785156 370.121094 279.027344 370.121094 283.035156 L 370.121094 365.503906 C 370.121094 369.507812 373.367188 372.753906 377.375 372.753906 L 434.71875 372.753906 C 438.722656 372.753906 441.96875 369.507812 441.96875 365.503906 C 441.96875 361.5 438.722656 358.253906 434.71875 358.253906 L 384.628906 358.253906 L 384.628906 331.515625 L 414.21875 331.515625 C 418.222656 331.515625 421.472656 328.273438 421.472656 324.269531 C 421.472656 320.261719 418.222656 317.019531 414.21875 317.019531 L 384.628906 317.019531 L 384.628906 290.28125 Z M 434.71875 290.28125 " fill-opacity="1" fill-rule="nonzero"/><path fill="#000000" d="M 522.160156 372.753906 C 526.164062 372.753906 529.410156 369.507812 529.410156 365.503906 L 529.410156 311.691406 C 529.410156 291.890625 513.296875 275.785156 493.488281 275.785156 C 473.679688 275.785156 457.5625 291.890625 457.5625 311.691406 L 457.5625 365.507812 C 457.5625 369.511719 460.808594 372.757812 464.816406 372.757812 C 468.824219 372.757812 472.070312 369.511719 472.070312 365.507812 L 472.070312 341.285156 L 514.910156 341.285156 L 514.910156 365.507812 C 514.90625 369.507812 518.152344 372.753906 522.160156 372.753906 Z M 472.066406 326.789062 L 472.066406 311.691406 C 472.066406 299.886719 481.675781 290.28125 493.484375 290.28125 C 505.292969 290.28125 514.902344 299.886719 514.902344 311.691406 L 514.902344 326.789062 Z M 472.066406 326.789062 " fill-opacity="1" fill-rule="nonzero"/><path fill="#000000" d="M 616.851562 311.40625 L 616.851562 305.664062 C 616.851562 289.1875 603.4375 275.785156 586.957031 275.785156 L 552.253906 275.785156 C 548.25 275.785156 545 279.027344 545 283.035156 C 545 313.40625 545 336.796875 545 365.503906 C 545 369.507812 548.25 372.753906 552.253906 372.753906 C 556.261719 372.753906 559.507812 369.507812 559.507812 365.503906 L 559.507812 341.285156 L 583.238281 341.285156 L 603.707031 369.738281 C 606.058594 373 610.597656 373.71875 613.828125 371.386719 C 617.082031 369.050781 617.820312 364.523438 615.484375 361.269531 L 599.195312 338.632812 C 609.589844 333.949219 616.851562 323.519531 616.851562 311.40625 Z M 602.34375 311.40625 C 602.34375 319.886719 595.441406 326.789062 586.957031 326.789062 L 559.507812 326.789062 L 559.507812 290.28125 L 586.957031 290.28125 C 595.441406 290.28125 602.34375 297.179688 602.34375 305.664062 Z M 602.34375 311.40625 " fill-opacity="1" fill-rule="nonzero"/><path fill="#000000" d="M 318.605469 371.695312 C 322.613281 371.695312 325.859375 368.449219 325.859375 364.445312 L 325.859375 326.496094 L 353.285156 286.039062 C 355.527344 282.726562 354.664062 278.21875 351.347656 275.972656 C 348.03125 273.726562 343.523438 274.59375 341.277344 277.90625 L 318.609375 311.34375 L 295.945312 277.90625 C 293.695312 274.589844 289.1875 273.726562 285.871094 275.972656 C 282.554688 278.21875 281.6875 282.726562 283.9375 286.039062 L 311.359375 326.496094 L 311.359375 364.445312 C 311.355469 368.449219 314.601562 371.695312 318.605469 371.695312 Z M 318.605469 371.695312 " fill-opacity="1" fill-rule="nonzero"/><path fill="#000000" d="M 200.597656 358.265625 C 196.59375 358.265625 193.34375 361.511719 193.34375 365.511719 C 193.34375 369.515625 196.59375 372.761719 200.597656 372.761719 L 245.128906 372.761719 C 249.101562 372.761719 252.382812 369.515625 252.382812 365.511719 C 252.382812 361.511719 249.101562 358.265625 245.128906 358.265625 L 230.101562 358.265625 L 230.101562 281.976562 C 230.101562 276.011719 223.351562 272.730469 218.640625 276.058594 L 196.390625 291.890625 C 193.160156 294.121094 192.3125 298.6875 194.679688 302.011719 C 196.914062 305.144531 201.640625 305.953125 204.804688 303.695312 L 215.59375 296.007812 L 215.59375 358.265625 Z M 200.597656 358.265625 " fill-opacity="1" fill-rule="nonzero"/><path fill="#000000" d="M 335.789062 501.601562 L 335.816406 501.601562 C 339.007812 499.195312 339.675781 494.667969 337.296875 491.480469 C 335.03125 488.378906 330.273438 487.652344 327.171875 489.945312 C 324 492.292969 323.21875 496.746094 325.632812 500.09375 C 327.960938 503.210938 332.507812 504.035156 335.789062 501.601562 Z M 335.789062 501.601562 " fill-opacity="1" fill-rule="nonzero"/><path fill="#000000" d="M 315.074219 510.039062 C 312.113281 507.570312 307.296875 508.007812 304.832031 510.9375 C 285.484375 534.046875 274.804688 563.421875 274.804688 593.609375 C 274.804688 664.628906 332.371094 722.472656 403.730469 722.472656 C 474.949219 722.472656 532.625 664.800781 532.625 593.609375 C 532.625 522.242188 474.757812 464.773438 403.730469 464.773438 C 386.410156 464.773438 369.613281 468.167969 353.804688 474.808594 C 350.117188 476.34375 348.378906 480.605469 349.914062 484.289062 C 351.425781 487.886719 355.804688 489.683594 359.429688 488.179688 C 373.445312 482.261719 388.355469 479.277344 403.730469 479.277344 C 466.796875 479.277344 518.121094 530.292969 518.121094 593.613281 C 518.121094 656.417969 467.632812 707.976562 403.757812 707.976562 L 403.703125 707.976562 C 339.851562 707.976562 289.3125 656.398438 289.3125 593.613281 C 289.3125 566.851562 298.769531 540.777344 315.972656 520.277344 C 318.574219 517.136719 318.085938 512.578125 315.074219 510.039062 Z M 315.074219 510.039062 " fill-opacity="1" fill-rule="nonzero"/></svg>